<?xml version="1.0" standalone="no"?>
<!DOCTYPE svg PUBLIC "-//W3C//DTD SVG 20010904//EN"
 "http://www.w3.org/TR/2001/REC-SVG-20010904/DTD/svg10.dtd">
<svg version="1.0" xmlns="http://www.w3.org/2000/svg"
 width="100.000000pt" height="100.000000pt" viewBox="0 0 100.000000 100.000000"
 preserveAspectRatio="xMidYMid meet">
<metadata>
Created by potrace 1.14, written by Peter Selinger 2001-2017
</metadata>
<g transform="translate(0.000000,100.000000) scale(0.100000,-0.100000)"
fill="#000000" stroke="none">
<path d="M260 935 c0 -8 -9 -24 -20 -35 -11 -11 -20 -27 -20 -35 0 -20 -49
-117 -65 -130 -7 -5 -18 -27 -25 -47 -14 -46 -10 -55 75 -156 68 -81 65 -72
82 -262 3 -41 13 -86 21 -98 9 -13 21 -45 27 -70 l12 -47 58 -3 c42 -2 56 0
53 10 -2 6 -19 16 -36 20 -17 5 -37 18 -43 29 -14 28 -22 192 -12 249 8 41 11
45 43 51 59 11 88 27 135 74 27 26 55 45 68 45 25 0 125 30 180 54 20 9 53 23
72 31 39 16 47 45 14 45 -12 0 -36 -9 -54 -20 -66 -41 -196 -70 -239 -54 -21
8 -9 34 21 45 24 9 25 13 18 57 -8 54 -18 63 -60 60 -23 -2 -33 -11 -44 -35
-18 -41 -38 -41 -85 -4 -53 42 -146 149 -147 169 -1 9 -2 22 -4 27 -1 6 -3 18
-3 28 -2 21 -22 23 -22 2z m89 -204 c39 -49 78 -91 86 -95 22 -8 18 -47 -8
-78 l-22 -27 -55 18 c-67 23 -144 86 -134 110 4 9 13 43 21 76 18 78 21 85 32
85 5 0 41 -40 80 -89z"/>
</g>
</svg>
